<svg width="1323" height="1323" viewBox="0 0 1323 1323" fill="none" xmlns="http://www.w3.org/2000/svg">
<path fill-rule="evenodd" clip-rule="evenodd" d="M661.5 1281.43C1003.88 1281.43 1281.43 1003.88 1281.43 661.5C1281.43 319.124 1003.88 41.573 661.5 41.573C319.124 41.573 41.573 319.124 41.573 661.5C41.573 1003.88 319.124 1281.43 661.5 1281.43ZM661.5 1323C1026.84 1323 1323 1026.84 1323 661.5C1323 296.164 1026.84 0 661.5 0C296.164 0 0 296.164 0 661.5C0 1026.84 296.164 1323 661.5 1323Z" fill="#4339DB"/>
<path d="M237.78 911.726L524.57 1030.45L575.224 836.774L343.25 755.274L237.78 911.726Z" fill="#4339DB"/>
<path d="M365.662 723.202L435.875 618.031L712.774 666.239L719.545 694.077L721.319 701.37L741.528 784.452L484.868 742.627L365.662 723.202Z" fill="#4339DB"/>
<path d="M463.956 570.731L609.886 618.804L618.816 583.082L620.813 575.096L631.488 532.395L511.76 499.323L463.956 570.731Z" fill="#4339DB"/>
<path d="M533.568 472.734L637.33 495.007L658.868 499.63L657.79 493.081L655.359 478.305L649.184 440.782L562.849 428.515L533.568 472.734Z" fill="#4339DB"/>
<path d="M586.757 400.448L629.482 410.586L650.551 299.14L586.757 400.448Z" fill="#4339DB"/>
<path fill-rule="evenodd" clip-rule="evenodd" d="M650.613 285.025L725.615 406.458L645.342 416.187L629.056 418.161L626.259 417.498L574.871 405.305L650.613 285.025ZM598.642 395.591L623.596 401.512L635.901 336.423L598.642 395.591ZM654.314 319.447L638.718 401.942L700.632 394.438L654.314 319.447Z" fill="#4339DB"/>
<path fill-rule="evenodd" clip-rule="evenodd" d="M999.67 783.957L1107.77 960.687L524.57 1030.45L575.224 836.774L999.67 783.957ZM534.571 1021.73L1095.32 954.653L995.812 791.964L581.169 843.562L534.571 1021.73Z" fill="#4339DB"/>
<path d="M612.588 497.336L658.768 507.248L694.257 500.598L677.351 496.166L658.868 499.63L637.33 495.007L612.588 497.336Z" fill="#4339DB"/>
<path fill-rule="evenodd" clip-rule="evenodd" d="M730.937 427.265L640.398 407.46L558.398 421.707L521.295 477.74L563.991 486.904L507.528 492.219L452.277 574.749L544.03 604.974L609.151 626.426L743.631 609.401L846.477 596.381L791.964 510.767L728.613 494.16L768.329 486.718L730.937 427.265ZM613.476 482.247L647.904 479.007L642.704 447.406L566.471 436.574L545.841 467.729L613.476 482.247ZM552.943 502.949L612.588 497.336L637.33 495.007L658.868 499.63L677.351 496.166L694.257 500.598L744.867 513.865L632.143 524.826L552.943 502.949ZM645.342 416.187L726.282 433.893L649.184 440.782L562.849 428.515L626.259 417.498L629.056 418.161L645.342 416.187ZM677.623 488.516L664.998 490.882L664.029 484.992L662.813 477.603L657.86 447.506L722.393 441.74L743.99 476.08L694.801 485.297L677.623 488.516ZM514.968 507.958L622.474 537.654L604.589 609.195L475.634 566.714L514.968 507.958ZM619.78 610.022L692.823 600.775L718.386 597.539L743.95 594.302L821.215 584.521L783.397 525.128L637.456 539.319L628.606 574.72L626.789 581.988L624.905 589.523L619.78 610.022Z" fill="#4339DB"/>
<path fill-rule="evenodd" clip-rule="evenodd" d="M713.124 400.448L629.482 410.586L650.551 299.14L713.124 400.448ZM654.314 319.447L638.718 401.942L700.632 394.438L654.314 319.447Z" fill="#4339DB"/>
<path fill-rule="evenodd" clip-rule="evenodd" d="M787.236 517.249L833.846 590.451L769.354 598.615L884.079 618.093L953.898 727.475L905.98 742.093L1004.68 777.825L1120.22 966.721L523.518 1038.1L226.477 915.131L338.911 748.347L410.709 738.11L353.005 728.707L431.4 611.281L620.813 575.096L631.488 532.395L787.236 517.249ZM712.116 695.137L460.249 731.047L378.319 717.696L439.387 626.224L706.673 672.759L712.116 695.137ZM460.098 746.159L374.555 758.355L576.043 829.145L967.868 780.387L882.163 749.359L870.457 745.121L741.528 784.452L484.868 742.627L460.098 746.159ZM477.466 617.69L712.505 658.61L842.995 626.271L743.631 609.401L609.151 626.426L544.03 604.974L477.466 617.69ZM692.823 600.775L619.78 610.022L624.905 589.523L626.789 581.988L628.606 574.72L637.456 539.319L783.397 525.128L821.215 584.521L743.95 594.302L718.386 597.539L692.823 600.775ZM876.154 633.443L721.79 671.7L726.975 693.018L728.749 700.31L730.523 707.602L746.916 774.999L858.751 740.882L870.659 737.25L882.567 733.617L930.719 718.928L876.154 633.443ZM566.256 841.541L346.218 764.234L249.084 908.322L519.511 1020.27L566.256 841.541ZM1095.32 954.653L534.571 1021.73L581.169 843.562L995.812 791.964L1095.32 954.653Z" fill="#4339DB"/>
<path d="M460.098 746.159L742.043 792.104L882.163 749.359L870.457 745.121L741.528 784.452L484.868 742.627L460.098 746.159Z" fill="#4339DB"/>
<path fill-rule="evenodd" clip-rule="evenodd" d="M649.184 440.782L726.282 433.893L645.342 416.187L629.056 418.161L626.259 417.498L562.849 428.515L649.184 440.782ZM649.38 433.265L677.125 430.786L640.068 422.68L610.741 427.775L649.38 433.265Z" fill="#4339DB"/>
</svg>
